<?xml version="1.0" encoding="UTF-8"?>
<svg version="1.1" xmlns="http://www.w3.org/2000/svg" width="387" height="373">
<path d="M0 0 C1.26777283 0.00456207 1.26777283 0.00456207 2.56115723 0.00921631 C16.2645631 0.081815 29.43631105 0.95566351 42.75 4.4375 C43.55663086 4.64648926 44.36326172 4.85547852 45.19433594 5.07080078 C91.85946072 17.62580715 132.19833847 48.065794 156.60473633 89.81958008 C171.29570062 115.75959333 179.57409734 144.67246383 180.75 174.4375 C180.79125 175.35789063 180.8325 176.27828125 180.875 177.2265625 C181.57537377 208.30564841 173.53230884 239.23031306 158.75 266.4375 C158.42918457 267.04287598 158.10836914 267.64825195 157.77783203 268.27197266 C151.27532219 280.51412805 143.22010809 290.98964596 133.8359375 301.1640625 C131.8977745 303.2764424 130.03976729 305.43748072 128.1875 307.625 C102.17114201 337.31565 59.33559879 356.31975567 20.55419922 360.2565918 C1.32221251 361.49731112 -19.46970934 362.15761305 -38.25 357.4375 C-39.09369141 357.22818848 -39.93738281 357.01887695 -40.80664062 356.80322266 C-80.01763835 346.81671585 -116.37375952 325.84507934 -141.25 293.4375 C-142.41208984 292.03371094 -142.41208984 292.03371094 -143.59765625 290.6015625 C-172.76407746 254.64042827 -184.67196236 206.53846335 -180.35571289 160.90283203 C-175.0204608 113.17762404 -150.88441979 69.41422417 -113.64794922 39.13476562 C-94.24923113 23.71483886 -72.36185738 13.14698035 -48.6875 6.125 C-47.92244141 5.89441895 -47.15738281 5.66383789 -46.36914062 5.42626953 C-31.15697315 1.16623662 -15.73106766 -0.12126015 0 0 Z M-146.25 97.4375 C-146.58 98.4275 -146.91 99.4175 -147.25 100.4375 C-146.59 100.4375 -145.93 100.4375 -145.25 100.4375 C-145.58 99.4475 -145.91 98.4575 -146.25 97.4375 Z " fill="#FEFDFD" transform="translate(192.25,5.5625)"/>
<path d="M0 0 C1.26777283 0.00456207 1.26777283 0.00456207 2.56115723 0.00921631 C16.2645631 0.081815 29.43631105 0.95566351 42.75 4.4375 C43.55663086 4.64648926 44.36326172 4.85547852 45.19433594 5.07080078 C91.85946072 17.62580715 132.19833847 48.065794 156.60473633 89.81958008 C171.29570062 115.75959333 179.57409734 144.67246383 180.75 174.4375 C180.79125 175.35789063 180.8325 176.27828125 180.875 177.2265625 C181.57537377 208.30564841 173.53230884 239.23031306 158.75 266.4375 C158.42918457 267.04287598 158.10836914 267.64825195 157.77783203 268.27197266 C151.27532219 280.51412805 143.22010809 290.98964596 133.8359375 301.1640625 C131.8977745 303.2764424 130.03976729 305.43748072 128.1875 307.625 C102.17114201 337.31565 59.33559879 356.31975567 20.55419922 360.2565918 C1.32221251 361.49731112 -19.46970934 362.15761305 -38.25 357.4375 C-39.09369141 357.22818848 -39.93738281 357.01887695 -40.80664062 356.80322266 C-80.01763835 346.81671585 -116.37375952 325.84507934 -141.25 293.4375 C-142.41208984 292.03371094 -142.41208984 292.03371094 -143.59765625 290.6015625 C-172.76407746 254.64042827 -184.67196236 206.53846335 -180.35571289 160.90283203 C-175.0204608 113.17762404 -150.88441979 69.41422417 -113.64794922 39.13476562 C-94.24923113 23.71483886 -72.36185738 13.14698035 -48.6875 6.125 C-47.92244141 5.89441895 -47.15738281 5.66383789 -46.36914062 5.42626953 C-31.15697315 1.16623662 -15.73106766 -0.12126015 0 0 Z M-30.25 45.4375 C-31.5184375 45.73914062 -32.786875 46.04078125 -34.09375 46.3515625 C-53.06858643 51.09527161 -69.94779386 59.24321725 -85.25 71.4375 C-85.78834473 71.86369629 -86.32668945 72.28989258 -86.88134766 72.72900391 C-112.81034941 93.453199 -128.76426791 121.26886735 -136.25 153.4375 C-136.49621094 154.46101563 -136.74242187 155.48453125 -136.99609375 156.5390625 C-140.40482687 173.98237265 -139.19181671 193.18355659 -135.25 210.4375 C-134.9715625 211.70335937 -134.693125 212.96921875 -134.40625 214.2734375 C-125.76568544 249.80403485 -102.3726774 280.43037553 -71.25 299.4375 C-40.49325408 317.02876091 -3.38026474 324.44655419 31.31396484 315.12646484 C70.55883666 304.02714351 101.73494204 281.86224816 122.02734375 245.8828125 C128.31550456 233.30649087 132.97724948 220.21369205 135.75 206.4375 C135.97429687 205.385625 136.19859375 204.33375 136.4296875 203.25 C142.70466881 168.17887159 134.00098784 132.4299454 114.5234375 102.94921875 C111.45926304 98.60942981 108.18159414 94.49127102 104.75 90.4375 C104.05003906 89.6021875 103.35007812 88.766875 102.62890625 87.90625 C97.21262538 81.65001113 91.29863149 76.47773884 84.75 71.4375 C83.55890625 70.47070312 83.55890625 70.47070312 82.34375 69.484375 C51.66854357 45.60430924 7.45685375 35.84684372 -30.25 45.4375 Z M-146.25 97.4375 C-146.58 98.4275 -146.91 99.4175 -147.25 100.4375 C-146.59 100.4375 -145.93 100.4375 -145.25 100.4375 C-145.58 99.4475 -145.91 98.4575 -146.25 97.4375 Z " fill="#4E4E4E" transform="translate(192.25,5.5625)"/>
<path d="M0 0 C12.1100928 -0.06987079 24.22013672 -0.12299811 36.33039093 -0.15543652 C41.95519694 -0.17101448 47.57986385 -0.19210707 53.20458984 -0.22631836 C58.6446314 -0.25919486 64.08454014 -0.27691199 69.52467346 -0.28463173 C71.58803901 -0.29012491 73.65139826 -0.30084982 75.71470642 -0.31719017 C95.00554693 -0.46372505 115.15878419 0.26037256 130.625 13.375 C137.39838649 20.12610562 139.35193467 25.0258469 139.5 34.5 C139.39808095 42.04362775 138.51166925 47.172766 133.3046875 52.84765625 C128.4852646 57.44269306 123.04836138 60.31046226 117 63 C119.14577988 65.14577988 120.81156781 65.89375336 123.5625 67.125 C131.75218464 71.15465669 138.1510349 76.66057563 142 85 C144.31504376 92.07112005 144.2698957 102.06662722 141.375 108.9375 C140.62532231 110.31535588 139.83347521 111.67115744 139 113 C138.61070312 113.68449219 138.22140625 114.36898437 137.8203125 115.07421875 C131.26111467 125.26232188 119.23089806 129.19604424 108 132 C107.32169632 132.17764389 106.64339264 132.35528778 105.9445343 132.53831482 C101.62097715 133.21622245 97.34695747 133.13014725 92.97729492 133.11352539 C91.97194702 133.11367142 90.96659912 133.11381744 89.93078613 133.1139679 C86.61399158 133.11327228 83.29725347 133.10549625 79.98046875 133.09765625 C77.67832978 133.09579083 75.37619041 133.09436751 73.0740509 133.09336853 C67.0192861 133.08955316 60.96454535 133.0797312 54.90979004 133.06866455 C48.72957688 133.05842939 42.54935982 133.0538664 36.36914062 133.04882812 C24.24608319 133.03810808 12.1230436 133.02104339 0 133 C0 131.35 0 129.7 0 128 C2.97 127.01 2.97 127.01 6 126 C6 86.4 6 46.8 6 6 C4.02 5.34 2.04 4.68 0 4 C0 2.68 0 1.36 0 0 Z " fill="#F5901F" transform="translate(127,139)"/>
<path d="M0 0 C7.20140095 -0.08430908 14.40097373 -0.16439229 21.60243988 -0.20700073 C24.95734682 -0.22796537 28.31152579 -0.25811766 31.66625977 -0.30175781 C35.53152161 -0.35074902 39.39620105 -0.37307739 43.26171875 -0.390625 C44.44142746 -0.41127014 45.62113617 -0.43191528 46.83659363 -0.45318604 C54.89593316 -0.45532155 62.6760085 0.40760278 70 4 C73.42580968 7.64837497 74.87032271 10.28177593 75.25 15.3125 C74.92434052 20.11597739 73.67521231 23.32478769 70.25 26.75 C63.71974744 30.37791809 58.67596756 30 51 30 C51 37.59 51 45.18 51 53 C54.3 53 57.6 53 61 53 C66.61469011 54.37981927 71.88408756 56.88408756 76 61 C78.7163232 65.49830827 78.63030297 69.88666715 78 75 C76.22701588 80.32902614 72.90633488 83.40252859 68 86 C61.13588208 88.65872503 54.25057755 88.25318379 46.97265625 88.1953125 C45.61502797 88.19157681 44.25739697 88.18873247 42.89976501 88.18673706 C39.34712118 88.17914431 35.79464397 88.15953397 32.24206543 88.1373291 C28.60866591 88.11677613 24.97523835 88.10760523 21.34179688 88.09765625 C14.227718 88.07734772 7.11409515 88.03819079 0 88 C0 76.12 0 64.24 0 52 C3.63 52 7.26 52 11 52 C11 45.07 11 38.14 11 31 C7.37 31 3.74 31 0 31 C0 20.77 0 10.54 0 0 Z " fill="#FCFCFA" transform="translate(163,160)"/>
<path d="M0 0 C1.65 0 3.3 0 5 0 C5.28875 0.639375 5.5775 1.27875 5.875 1.9375 C6.82823451 4.15206079 6.82823451 4.15206079 9 5 C10.5367463 5.0965917 12.0776252 5.1306712 13.61740112 5.13371277 C14.59041168 5.13797775 15.56342224 5.14224274 16.56591797 5.14663696 C17.63712891 5.14618378 18.70833984 5.14573059 19.81201172 5.14526367 C20.93729279 5.14862228 22.06257385 5.1519809 23.22195435 5.15544128 C26.95787649 5.16497381 30.69375393 5.16689558 34.4296875 5.16796875 C37.01799539 5.17117982 39.60630309 5.17454377 42.1946106 5.17805481 C47.62697853 5.1840519 53.05932862 5.18593683 58.49169922 5.18530273 C64.77078082 5.1847021 71.04977647 5.19525023 77.32883632 5.2110464 C83.36765148 5.2256971 89.40641997 5.22929081 95.44525528 5.22869301 C98.01533484 5.22987551 100.58541499 5.23431234 103.15548325 5.24202538 C106.74679497 5.25179348 110.33788412 5.24895965 113.92919922 5.24291992 C114.99636169 5.24853943 116.06352417 5.25415894 117.1630249 5.25994873 C118.14167511 5.25575424 119.12032532 5.25155975 120.12863159 5.24723816 C120.97777067 5.24778293 121.82690975 5.24832769 122.70178032 5.24888897 C125.26650885 4.97113805 126.85531275 4.42981748 129 3 C129.33 2.01 129.66 1.02 130 0 C131.65 0 133.3 0 135 0 C135 11.55 135 23.1 135 35 C133.35 35 131.7 35 130 35 C129.61094482 34.18958252 129.22188965 33.37916504 128.82104492 32.54418945 C127.30744016 29.84500019 127.30744016 29.84500019 125.00454712 29.51425171 C122.28167893 29.32325861 119.59292484 29.28188873 116.86328125 29.29296875 C115.86870407 29.27784744 114.87412689 29.26272614 113.84941101 29.24714661 C110.67021255 29.2041307 107.49196098 29.19541806 104.3125 29.1875 C102.1581777 29.16436655 100.00387811 29.13900364 97.84960938 29.11132812 C92.56632203 29.04833823 87.28362991 29.01611152 82 29 C82 33.62 82 38.24 82 43 C72.43 43 62.86 43 53 43 C53 38.38 53 33.76 53 29 C46.64561107 29.01937661 40.29261549 29.07096051 33.9387207 29.15258789 C31.77668853 29.17580413 29.61454269 29.19017207 27.45239258 29.19555664 C24.34644428 29.20481962 21.24229297 29.24575236 18.13671875 29.29296875 C17.16788254 29.2890361 16.19904633 29.28510345 15.20085144 29.28105164 C12.69766633 29.33564241 10.43325528 29.40767853 8 30 C6.1403749 32.44328979 6.1403749 32.44328979 5 35 C3.35 35 1.7 35 0 35 C0 23.45 0 11.9 0 0 Z " fill="#4D4D4D" transform="translate(127,90)"/>
<path d="M0 0 C9.57 0 19.14 0 29 0 C29.33 20.13 29.66 40.26 30 61 C31.32 61.66 32.64 62.32 34 63 C34 64.32 34 65.64 34 67 C21.46 67 8.92 67 -4 67 C-3.67 65.35 -3.34 63.7 -3 62 C-2.34 62 -1.68 62 -1 62 C-0.67 41.54 -0.34 21.08 0 0 Z " fill="#4E4E4E" transform="translate(180,166)"/>
<path d="M0 0 C0.99 0.33 1.98 0.66 3 1 C3 2.65 3 4.3 3 6 C6.86763446 7.87543354 6.86763446 7.87543354 11 7 C11 8.32 11 9.64 11 11 C11.69867188 11.12246094 12.39734375 11.24492187 13.1171875 11.37109375 C17.28875582 12.28115134 21.23286901 13.74992044 25.2578125 15.16015625 C28.00009488 16.14642067 28.00009488 16.14642067 31 16 C31.9590625 16.7425 31.9590625 16.7425 32.9375 17.5 C35.11411144 19.39211447 35.11411144 19.39211447 39 19 C41.52494123 19.29943213 44.04347506 19.63096457 46.5625 19.9765625 C49.35764329 20.00343888 50.68863015 19.54423417 53 18 C53.99 16.515 53.99 16.515 55 15 C55.66 15 56.32 15 57 15 C57.9765625 16.79036458 58.953125 18.58072917 59.9296875 20.37109375 C60.91410024 22.16618315 60.91410024 22.16618315 63 23 C64.93375001 23.20565731 66.87246428 23.36603946 68.8125 23.5 C71.81155973 23.70863024 74.6886804 23.93727486 77.63671875 24.53125 C80.25237408 25.12970462 80.25237408 25.12970462 84 25 C84.33 23.35 84.66 21.7 85 20 C87.97 20 90.94 20 94 20 C94.495 21.98 94.495 21.98 95 24 C95.94875 23.979375 96.8975 23.95875 97.875 23.9375 C101 24 101 24 103 25 C103.495 23.515 103.495 23.515 104 22 C104.99 22.99 104.99 22.99 106 24 C104.63016497 27.16115776 104.0109362 27.9927092 101 30 C101.99 31.98 101.99 31.98 103 34 C98.70858671 36.09973095 94.77439646 36.30571029 90.0859375 36.30078125 C88.94150681 36.30924828 88.94150681 36.30924828 87.7739563 36.31788635 C85.30742934 36.32989017 82.84152556 36.32366805 80.375 36.3125 C79.53509521 36.31034485 78.69519043 36.3081897 77.82983398 36.30596924 C65.66669856 36.25561453 53.85382699 35.97926185 42 33 C41.15630859 32.79068848 40.31261719 32.58137695 39.44335938 32.36572266 C24.77585406 28.63010892 10.96593506 23.55173891 -2.625 16.875 C-3.28862549 16.55031738 -3.95225098 16.22563477 -4.63598633 15.89111328 C-8.46504775 13.95668815 -11.7517245 11.8002375 -15 9 C-12.77431099 6.77431099 -10.84506944 5.35479497 -8 4 C-5.6875 4.8125 -5.6875 4.8125 -4 6 C-4.33 7.65 -4.66 9.3 -5 11 C-3.92474806 8.34771188 -2.90543849 5.71631546 -2 3 C-1.34 2.01 -0.68 1.02 0 0 Z " fill="#4D4D4D" transform="translate(112,330)"/>
<path d="M0 0 C0.99 0 1.98 0 3 0 C3.4125 0.474375 3.825 0.94875 4.25 1.4375 C6.01913992 3.32995721 6.01913992 3.32995721 9.2734375 3.29296875 C13.81001106 4.15368134 15.23729548 5.54884476 18.375 8.875 C18.84413818 9.36895264 19.31327637 9.86290527 19.79663086 10.37182617 C34.58191425 26.14863746 50.10634167 46.15749768 57 67 C56.67 67.66 56.34 68.32 56 69 C53.53199953 67.84826645 51.95216435 66.95216435 50 65 C49.67 66.65 49.34 68.3 49 70 C47.1875 70.6875 47.1875 70.6875 45 71 C43.25 69.5625 43.25 69.5625 42 68 C40.88625 68.66 39.7725 69.32 38.625 70 C35.25 72 35.25 72 33 72 C33.20496094 71.28714844 33.40992188 70.57429688 33.62109375 69.83984375 C35.10620647 64.56023251 36.39412346 59.45288884 37 54 C36.01 54.66 35.02 55.32 34 56 C30.8125 56.125 30.8125 56.125 28 56 C28.11859375 55.20335937 28.2371875 54.40671875 28.359375 53.5859375 C29.2443077 46.80035182 29.2443077 46.80035182 27.3125 40.375 C24.57526262 37.42712077 24.57526262 37.42712077 21 36 C18.27401802 36.15202592 15.70266946 36.54955509 13 37 C12.3125 35.1875 12.3125 35.1875 12 33 C12.495 32.525625 12.99 32.05125 13.5 31.5625 C13.995 31.046875 14.49 30.53125 15 30 C14.65772977 25.92013884 13.31834264 23.70472562 10.625 20.6875 C10.01914062 19.99011719 9.41328125 19.29273437 8.7890625 18.57421875 C7.02180135 16.66970453 7.02180135 16.66970453 4 17 C3.360625 17.680625 2.72125 18.36125 2.0625 19.0625 C1.381875 19.701875 0.70125 20.34125 0 21 C-2.0625 20.6875 -2.0625 20.6875 -4 20 C-4.99 20.33 -5.98 20.66 -7 21 C-11.52068898 19.46619481 -14.54231662 18.1925187 -17 14 C-16.01 13.01 -15.02 12.02 -14 11 C-12.02 12.65 -10.04 14.3 -8 16 C-7.34 15.34 -6.68 14.68 -6 14 C-7.98 12.68 -9.96 11.36 -12 10 C-11.67 8.68 -11.34 7.36 -11 6 C-6.40693504 7.4859916 -3.56430755 9.85014682 0 13 C0.66 12.01 1.32 11.02 2 10 C1.38125 9.896875 0.7625 9.79375 0.125 9.6875 C-2 9 -2 9 -4 6 C-3.34 6 -2.68 6 -2 6 C-1.34 4.02 -0.68 2.04 0 0 Z " fill="#4D4D4D" transform="translate(302,49)"/>
<path d="M0 0 C2.14280243 0.85872607 4.1028052 1.86259702 6.1171875 2.98828125 C8.16339424 4.15904786 8.16339424 4.15904786 11.25 5.0625 C14.00662081 6.0022571 15.79101639 7.13086002 18 9 C16.125 13.75 16.125 13.75 15 16 C18.3171411 17.4216319 21.44219804 18.39009109 25 19 C25.66 17.68 26.32 16.36 27 15 C28.32 15.66 29.64 16.32 31 17 C28.36 21.95 25.72 26.9 23 32 C21.68 31.34 20.36 30.68 19 30 C19.33 29.401875 19.66 28.80375 20 28.1875 C21.20787988 25.94613529 21.20787988 25.94613529 21 23 C18.69 21.68 16.38 20.36 14 19 C12.68 20.65 11.36 22.3 10 24 C8.68 23.34 7.36 22.68 6 22 C6.7425 20.948125 6.7425 20.948125 7.5 19.875 C9.1936681 16.62880281 9.25162315 14.60659844 9 11 C8.01 12.485 8.01 12.485 7 14 C6.34 14 5.68 14 5 14 C4.67 15.65 4.34 17.3 4 19 C-2.42372261 19.45078755 -5.73666695 18.78959979 -11 15 C-13.21189526 12.32729322 -13.0009139 11.02558908 -12.875 7.5 C-11.09605954 0.38423817 -7.02559836 -1.30292915 0 0 Z " fill="#575757" transform="translate(254,29)"/>
<path d="M0 0 C1.32 0.33 2.64 0.66 4 1 C4 41.92 4 82.84 4 125 C29.2759375 125.0309375 29.2759375 125.0309375 55.0625 125.0625 C60.37609619 125.071604 65.68969238 125.08070801 71.16430664 125.09008789 C75.94225279 125.09343306 75.94225279 125.09343306 80.72019958 125.09544373 C82.8423941 125.09697569 84.96458777 125.10048525 87.08677673 125.10557556 C90.30794784 125.11291328 93.52906591 125.11390537 96.75024414 125.11352539 C97.68999871 125.1171235 98.62975328 125.12072161 99.59798527 125.12442875 C104.50855519 125.11669358 109.15879324 124.83453225 114 124 C102.98532244 131.34311837 87.89591301 129.3838142 75.296875 129.29296875 C73.00474324 129.28736502 70.71260785 129.2830986 68.42047119 129.28010559 C62.42325711 129.26871803 56.42626522 129.2393038 50.42913818 129.20599365 C44.29523727 129.17516083 38.16130003 129.16157214 32.02734375 129.14648438 C20.0181322 129.11442782 8.00908467 129.06330594 -4 129 C-4 127.35 -4 125.7 -4 124 C-1.03 123.01 -1.03 123.01 2 122 C2.04667686 106.38849554 2.08196762 90.77700984 2.10362434 75.16545296 C2.11394625 67.91708166 2.12802399 60.66875366 2.15087891 53.42041016 C2.17078487 47.10431702 2.18370978 40.78825524 2.18817699 34.47213161 C2.19078913 31.12637189 2.19694761 27.78070188 2.21146011 24.43497086 C2.22589039 20.70415077 2.22798149 16.97351909 2.22705078 13.24267578 C2.23424133 12.12777771 2.24143188 11.01287964 2.24884033 9.86419678 C2.246091 8.85174896 2.24334167 7.83930115 2.24050903 6.7961731 C2.24235262 5.91309542 2.24419621 5.03001774 2.24609566 4.12018013 C2.19719079 1.78328255 2.19719079 1.78328255 0 0 Z " fill="#EF9E46" transform="translate(131,143)"/>
<path d="M0 0 C2.6875 2.4375 2.6875 2.4375 3.875 5.8125 C3.62712212 10.60480577 2.15033407 12.20050293 -1.3125 15.4375 C-4.96724648 17.49915186 -8.15373493 18.04398657 -12.3125 17.4375 C-15.1875 15.375 -15.1875 15.375 -17.3125 12.4375 C-17.98906373 8.22777013 -17.82240012 6.25698233 -15.5625 2.625 C-10.69286278 -2.10936952 -6.28661646 -2.96538512 0 0 Z " fill="#F0F0F0" transform="translate(253.3125,328.5625)"/>
<path d="M0 0 C3.37867819 2.17737039 5.74721377 4.12775165 7 8 C7.47580309 11.7271242 7.27363413 13.50745856 5.4375 16.8125 C2.15780591 19.75581521 0.40262356 20.22386221 -4 20 C-7.32749393 17.94420177 -10.23635881 15.52728238 -12 12 C-12.41337988 8.94098886 -12.47111211 6.05410607 -12 3 C-8.41146236 -1.56722972 -5.39336509 -1.54096145 0 0 Z " fill="#ECECEC" transform="translate(325,85)"/>
<path d="M0 0 C3.2535327 1.39067501 6.35962256 2.71924512 8 6 C8.25554911 9.44991293 8.34160241 12.13460723 7.0625 15.375 C3.73546902 17.99629714 0.14603456 18.05849784 -4 18 C-7.46933179 17.22903738 -8.76082225 16.23271349 -11.3125 13.75 C-13.37172783 10.39422131 -13.80480678 8.86307254 -13 5 C-8.95471509 0.46138767 -6.23430918 -0.98436461 0 0 Z " fill="#F3F3F3" transform="translate(159,333)"/>
<path d="M0 0 C2.16242083 3.69413558 2.49885784 7.39079962 1.5 11.5625 C-0.70980576 14.58757391 -2.08091307 15.45519755 -5.734375 16.390625 C-8.98958333 16.78125 -12.24479167 17.171875 -15.5 17.5625 C-16.49 11.9525 -17.48 6.3425 -18.5 0.5625 C-4.92424242 -2.83143939 -4.92424242 -2.83143939 0 0 Z " fill="#F1F1F1" transform="translate(231.5,335.4375)"/>
<path d="M0 0 C14.46428571 -0.26785714 14.46428571 -0.26785714 18 2 C18 4.66666667 18 7.33333333 18 10 C18.31088368 11.67099977 18.64080332 13.33871537 19 15 C16.38521048 17.56761548 15.05471424 17.9956345 11.328125 18.29296875 C9.96840181 18.27596307 8.60892078 18.23720589 7.25 18.1875 C4.8575 18.125625 2.465 18.06375 0 18 C0 12.06 0 6.12 0 0 Z " fill="#EEEEEE" transform="translate(180,18)"/>
<path d="M0 0 C11.54716981 3.54716981 11.54716981 3.54716981 15 7 C15.25 9.4375 15.25 9.4375 15 12 C14.01 12.66 13.02 13.32 12 14 C12.20625 14.78375 12.4125 15.5675 12.625 16.375 C12.74875 17.24125 12.8725 18.1075 13 19 C11 21 11 21 9.1171875 21.08203125 C3.66202403 20.42627118 -0.92776887 19.12111483 -6 17 C-4.33846988 11.14340094 -2.52958084 5.5409866 0 0 Z " fill="#EDEDED" transform="translate(129,324)"/>
<path d="M0 0 C1.70209877 0.00333092 1.70209877 0.00333092 3.43858337 0.00672913 C4.71983597 0.00680466 6.00108856 0.00688019 7.32116699 0.00695801 C8.73001646 0.01206542 10.13886554 0.01728143 11.54771423 0.02259827 C12.98118033 0.02446249 14.41464706 0.02588637 15.84811401 0.02688599 C19.62765755 0.03071079 23.40716288 0.04054075 27.18669128 0.05158997 C31.04075097 0.06180489 34.8948168 0.06638378 38.74888611 0.07142639 C46.31596085 0.08216306 53.88300407 0.09923903 61.45005798 0.12025452 C61.45005798 0.78025452 61.45005798 1.44025452 61.45005798 2.12025452 C62.44005798 2.61525452 62.44005798 2.61525452 63.45005798 3.12025452 C62.40333923 2.9617804 61.35662048 2.80330627 60.27818298 2.64002991 C54.26959797 1.89298862 48.24751803 1.8876864 42.20005798 1.80384827 C40.946203 1.78306717 39.69234802 1.76228607 38.40049744 1.74087524 C35.09293852 1.68682604 31.78535134 1.63650041 28.47770691 1.58802795 C25.09213768 1.53748034 21.70664908 1.48201658 18.32115173 1.42689514 C11.6975171 1.31940811 5.07383107 1.22003571 -1.54994202 1.12025452 C-1.54994202 11.35025452 -1.54994202 21.58025452 -1.54994202 32.12025452 C2.08005798 32.12025452 5.71005798 32.12025452 9.45005798 32.12025452 C9.45005798 39.05025452 9.45005798 45.98025452 9.45005798 53.12025452 C5.82005798 53.12025452 2.19005798 53.12025452 -1.54994202 53.12025452 C-1.54994202 65.00025452 -1.54994202 76.88025452 -1.54994202 89.12025452 C-2.20994202 89.12025452 -2.86994202 89.12025452 -3.54994202 89.12025452 C-3.54994202 76.58025452 -3.54994202 64.04025452 -3.54994202 51.12025452 C0.41005798 51.45025452 4.37005798 51.78025452 8.45005798 52.12025452 C8.45005798 45.85025452 8.45005798 39.58025452 8.45005798 33.12025452 C4.82005798 33.12025452 1.19005798 33.12025452 -2.54994202 33.12025452 C-3.68318296 29.72053168 -3.67936657 27.1016835 -3.68275452 23.51869202 C-3.68404358 22.22447327 -3.68533264 20.93025452 -3.68666077 19.59681702 C-3.68456604 18.92424866 -3.68247131 18.2516803 -3.68031311 17.55873108 C-3.67494352 15.49583136 -3.68027562 13.43314763 -3.68666077 11.37025452 C-3.6853717 10.07861389 -3.68408264 8.78697327 -3.68275452 7.45619202 C-3.68162659 6.26558167 -3.68049866 5.07497131 -3.67933655 3.84828186 C-3.50464602 0.16527808 -3.50464602 0.16527808 0 0 Z " fill="#E3943C" transform="translate(164.54994201660156,158.87974548339844)"/>
<path d="M0 0 C2 2 2 2 2.125 4.625 C2.08375 5.40875 2.0425 6.1925 2 7 C2.66 7 3.32 7 4 7 C4.66 6.01 5.32 5.02 6 4 C6.66 4 7.32 4 8 4 C7.47731534 6.76276177 6.89130413 9.3260876 6 12 C7.32 12.33 8.64 12.66 10 13 C10 13.66 10 14.32 10 15 C8.9275 15.12375 7.855 15.2475 6.75 15.375 C3.18185277 15.77339909 3.18185277 15.77339909 0.9375 17.0625 C-1.83632686 18.40467429 -3.96424386 18.32295278 -7 18 C-8.9375 16.8125 -8.9375 16.8125 -10 15 C-9.6875 12.5 -9.6875 12.5 -9 10 C-9 7.37886292 -9.31292445 5.49064888 -10 3 C-6.70335635 -0.04305568 -4.44038228 -0.48265025 0 0 Z " fill="#EEEEEE" transform="translate(159,22)"/>
<path d="M0 0 C8.51304348 6.95869565 8.51304348 6.95869565 11 11 C10.84077523 14.42333251 10.4368763 15.5631237 8 18 C4.875 17.625 4.875 17.625 2 17 C1.67 19.64 1.34 22.28 1 25 C-1.0625 23.5 -1.0625 23.5 -3 21 C-3.01110843 18.23955608 -2.47800067 15.73764021 -2 13 C-2.33 12.01 -2.66 11.02 -3 10 C-5.69725519 11.88807863 -7.13216429 13.19824644 -9 16 C-10.5 14.625 -10.5 14.625 -12 13 C-12 12.34 -12 11.68 -12 11 C-10.390625 9.4140625 -10.390625 9.4140625 -8.25 7.625 C-5.3756268 5.18382134 -2.61456008 2.72350008 0 0 Z " fill="#EDEDED" transform="translate(307,64)"/>
<path d="M0 0 C2 2 2 2 2.1875 5 C2 8 2 8 1 10 C2.98 10.66 4.96 11.32 7 12 C6.67 12.99 6.34 13.98 6 15 C5.01 15.33 4.02 15.66 3 16 C3 15.34 3 14.68 3 14 C-0.3 13.67 -3.6 13.34 -7 13 C-6.39816251 15.02045442 -5.72693904 17.02111039 -5 19 C-4.34 19.33 -3.68 19.66 -3 20 C-4.65 20.66 -6.3 21.32 -8 22 C-8.48210937 21.08476563 -8.96421875 20.16953125 -9.4609375 19.2265625 C-10.09876794 18.0259405 -10.73679926 16.8254252 -11.375 15.625 C-11.69210938 15.02171875 -12.00921875 14.4184375 -12.3359375 13.796875 C-13.7132062 11.21449618 -14.91830581 9.08169419 -17 7 C-15.11248318 5.81992569 -13.21460805 4.65640827 -11.3125 3.5 C-10.25675781 2.8503125 -9.20101562 2.200625 -8.11328125 1.53125 C-5.00452342 0.00222482 -3.39180138 -0.52272946 0 0 Z " fill="#F1F1F1" transform="translate(115,39)"/>
<path d="M0 0 C1.46133311 4.64651427 0.39260421 7.39346788 -1.4375 11.8125 C-1.91058594 12.97394531 -2.38367188 14.13539062 -2.87109375 15.33203125 C-3.24363281 16.21246094 -3.61617188 17.09289062 -4 18 C-0.7 16.35 2.6 14.7 6 13 C6.33 14.32 6.66 15.64 7 17 C2.05 19.64 -2.9 22.28 -8 25 C-10 20 -10 20 -8.8828125 16.44921875 C-8.31457117 15.18719441 -7.72800723 13.93328727 -7.125 12.6875 C-6.82980469 12.04232422 -6.53460938 11.39714844 -6.23046875 10.73242188 C-5.50265055 9.14765643 -4.75339577 7.57276688 -4 6 C-8.95 8.475 -8.95 8.475 -14 11 C-14.66 10.01 -15.32 9.02 -16 8 C-14.33918231 7.05096132 -12.67810365 6.10237606 -11.015625 5.15625 C-9.68751972 4.39439116 -8.36441678 3.62373474 -7.046875 2.84375 C-2.2125 0 -2.2125 0 0 0 Z " fill="#F1F1F1" transform="translate(339,103)"/>
<path d="M0 0 C0 1.65 0 3.3 0 5 C-0.928125 4.95875 -1.85625 4.9175 -2.8125 4.875 C-6.15809719 4.72863661 -6.15809719 4.72863661 -9 7 C-9.33 7.99 -9.66 8.98 -10 10 C-8.80375 9.505 -7.6075 9.01 -6.375 8.5 C-2.78499903 7.16329751 0.13436094 6.44776585 4 7 C6 10 6 10 6.125 12.375 C4.34994244 16.51680098 0.98406633 18.13496348 -3 20 C-6.5 20.8125 -6.5 20.8125 -9 21 C-9 19.68 -9 18.36 -9 17 C-5.97265625 16.26757812 -5.97265625 16.26757812 -2.9453125 15.53515625 C-0.9414343 15.05153008 -0.9414343 15.05153008 1 14 C1.33 13.01 1.66 12.02 2 11 C1.41992188 11.22816406 0.83984375 11.45632813 0.2421875 11.69140625 C-4.57455796 13.46390499 -7.88474517 14.44276418 -13 13 C-13.8125 10.3125 -13.8125 10.3125 -14 7 C-10.62731175 2.21295862 -5.92254019 0 0 0 Z " fill="#F1F1F1" transform="translate(271,317)"/>
<path d="M0 0 C2.9540978 1.65081936 5.56965271 3.42101296 8.125 5.625 C10.8167087 8.13912472 10.8167087 8.13912472 14 9 C13.34 10.32 12.68 11.64 12 13 C11.67 12.34 11.34 11.68 11 11 C9.67592331 10.31513275 8.34090759 9.65129797 7 9 C6.29875 8.46375 5.5975 7.9275 4.875 7.375 C3.11872074 5.80287878 3.11872074 5.80287878 1 6 C1 6.99 1 7.98 1 9 C2.98 9.99 4.96 10.98 7 12 C5.68 13.32 4.36 14.64 3 16 C1.35 14.35 -0.3 12.7 -2 11 C-2.99 12.485 -2.99 12.485 -4 14 C-1.03 16.31 1.94 18.62 5 21 C4.01 21.99 3.02 22.98 2 24 C-1.96 20.7 -5.92 17.4 -10 14 C-7.62819543 10.44229314 -5.32080309 7.0137859 -2.75 3.625 C-2.22921875 2.93664063 -1.7084375 2.24828125 -1.171875 1.5390625 C-0.78515625 1.03117187 -0.3984375 0.52328125 0 0 Z " fill="#EFEFEF" transform="translate(290,50)"/>
<path d="M0 0 C0.66 1.32 1.32 2.64 2 4 C1.21625 4.37125 0.4325 4.7425 -0.375 5.125 C-3.60628829 7.43306306 -4.07506212 9.21616321 -5 13 C-4.22076172 12.25943359 -4.22076172 12.25943359 -3.42578125 11.50390625 C-2.72839844 10.86324219 -2.03101563 10.22257812 -1.3125 9.5625 C-0.62800781 8.92441406 0.05648437 8.28632812 0.76171875 7.62890625 C3.25092368 5.81739062 4.95280478 5.27886146 8 5 C9.875 6 9.875 6 11 8 C10.90267878 13.25534613 9.77061821 16.33412118 6 20 C3.25 21.3125 3.25 21.3125 1 22 C0.67 21.01 0.34 20.02 0 19 C0.78375 18.62875 1.5675 18.2575 2.375 17.875 C5.60628829 15.56693694 6.07506212 13.78383679 7 10 C4.07735409 11.19070759 2.73487465 12.2923177 0.5625 14.6875 C-2 17 -2 17 -4.75 16.875 C-7 16 -7 16 -8 15 C-8.38840411 10.96059727 -8.45806925 8.7198231 -6.25 5.25 C-4.26305323 3.26305323 -2.32186316 1.57555 0 0 Z " fill="#F0F0F0" transform="translate(63,80)"/>
<path d="M0 0 C0.99 0.33 1.98 0.66 3 1 C1.125 5.75 1.125 5.75 0 8 C3.3171411 9.4216319 6.44219804 10.39009109 10 11 C10.66 9.68 11.32 8.36 12 7 C13.32 7.66 14.64 8.32 16 9 C13.36 13.95 10.72 18.9 8 24 C6.68 23.34 5.36 22.68 4 22 C4.495 21.1028125 4.495 21.1028125 5 20.1875 C6.20787988 17.94613529 6.20787988 17.94613529 6 15 C2.535 13.02 2.535 13.02 -1 11 C-2.32 12.65 -3.64 14.3 -5 16 C-6.32 15.34 -7.64 14.68 -9 14 C-6.03 9.38 -3.06 4.76 0 0 Z " fill="#F2F2F2" transform="translate(269,37)"/>
<path d="M0 0 C2.87069081 1.41093477 5.43723274 3.0915563 8 5 C7.67 5.99 7.34 6.98 7 8 C4.50638429 6.79618552 2.31856917 5.54571278 0 4 C-3.04195427 3.66659529 -3.04195427 3.66659529 -6 4 C-8.28930236 5.88138759 -8.28930236 5.88138759 -8.375 8.9375 C-8.29395984 12.01982847 -8.29395984 12.01982847 -6.375 13.8125 C-3.58532678 15.20733661 -1.08619739 15.64929575 2 16 C2 15.01 2 14.02 2 13 C0.35 12.67 -1.3 12.34 -3 12 C-3 11.34 -3 10.68 -3 10 C2.53846154 10.61538462 2.53846154 10.61538462 4.875 12.5625 C5.431875 13.2740625 5.431875 13.2740625 6 14 C5.34 15.65 4.68 17.3 4 19 C-2.42372261 19.45078755 -5.73666695 18.78959979 -11 15 C-13.21189526 12.32729322 -13.0009139 11.02558908 -12.875 7.5 C-11.12663871 0.50655482 -6.9826371 -1.51960268 0 0 Z " fill="#EBEBEB" transform="translate(254,29)"/>
<path d="M0 0 C0 0.99 0 1.98 0 3 C-1.99330842 4.34331654 -3.99384866 5.67594012 -6 7 C-7.38868516 9.10039331 -7.38868516 9.10039331 -8 11 C-3.74608555 8.97975655 -3.74608555 8.97975655 0.0625 6.25 C2 5 2 5 4.6875 5.25 C7 6 7 6 8 7 C8.59124151 11.23723082 8.21091523 12.7035786 5.6875 16.25 C3 19 3 19 0 21 C-0.99 21 -1.98 21 -3 21 C-3 20.01 -3 19.02 -3 18 C-2.05125 17.38125 -1.1025 16.7625 -0.125 16.125 C3.1799975 13.8776017 3.95626388 12.75745002 5 9 C2.52751464 10.44228313 0.22543422 11.80365407 -1.9375 13.6875 C-4.70114973 15.44618619 -6.79168439 15.21874879 -10 15 C-10.8125 11.875 -10.8125 11.875 -11 8 C-8.25398092 3.84174254 -5.30832713 0 0 0 Z " fill="#F3F3F3" transform="translate(79,65)"/>
<path d="M0 0 C0.5465625 0.15855469 1.093125 0.31710937 1.65625 0.48046875 C1.32625 1.80046875 0.99625 3.12046875 0.65625 4.48046875 C-0.33375 4.15046875 -1.32375 3.82046875 -2.34375 3.48046875 C-3.86141539 3.36414146 -5.3841846 3.30550636 -6.90625 3.29296875 C-7.69128906 3.27878906 -8.47632813 3.26460938 -9.28515625 3.25 C-11.5681045 3.28879366 -11.5681045 3.28879366 -13.34375 5.48046875 C-13.69506571 8.22073128 -13.68794875 9.85660851 -12.34375 12.29296875 C-9.10386038 14.21665321 -6.0611681 13.66329259 -2.34375 13.48046875 C-2.01375 12.49046875 -1.68375 11.50046875 -1.34375 10.48046875 C-3.32375 10.81046875 -5.30375 11.14046875 -7.34375 11.48046875 C-7.01375 10.16046875 -6.68375 8.84046875 -6.34375 7.48046875 C-3.37375 7.81046875 -0.40375 8.14046875 2.65625 8.48046875 C2.40063677 10.82359005 2.06354228 13.15890278 1.65625 15.48046875 C-2.55001304 17.58360027 -7.77376003 17.0037965 -12.34375 16.48046875 C-15.59375 14.48046875 -15.59375 14.48046875 -17.34375 11.48046875 C-18.17498062 7.62935442 -17.89156626 4.52392829 -16.03125 0.98046875 C-11.21841871 -1.70576267 -5.29432311 -1.17357496 0 0 Z " fill="#F3F3F3" transform="translate(187.34375,337.51953125)"/>
<path d="M0 0 C1.65 0.66 3.3 1.32 5 2 C4.01 2.495 4.01 2.495 3 3 C3 8.94 3 14.88 3 21 C1.35 20.34 -0.3 19.68 -2 19 C-1.67 17.35 -1.34 15.7 -1 14 C-5.37777675 11.74478168 -8.23177878 12.28026849 -13 13 C-13.66 12.34 -14.32 11.68 -15 11 C-12.87885041 9.49428254 -10.75346385 7.99531321 -8.625 6.5 C-8.02171875 6.07074219 -7.4184375 5.64148438 -6.796875 5.19921875 C-2.2265625 2 -2.2265625 2 0 2 C0 1.34 0 0.68 0 0 Z " fill="#ECECEC" transform="translate(116,317)"/>
<path d="M0 0 C3.73886628 1.39793894 6.66893624 3.95553197 9.75 6.4375 C10.73484375 7.21996094 11.7196875 8.00242187 12.734375 8.80859375 C13.85585937 9.89333984 13.85585937 9.89333984 15 11 C15 11.99 15 12.98 15 14 C10.25 13.125 10.25 13.125 8 12 C5.6505947 12.60760482 3.31470912 13.27129528 1 14 C1.33 15.65 1.66 17.3 2 19 C0.68 19.33 -0.64 19.66 -2 20 C-2 13.73 -2 7.46 -2 1 C-1.34 0.67 -0.68 0.34 0 0 Z " fill="#EEEEEE" transform="translate(126,31)"/>
<path d="M0 0 C1.65 0 3.3 0 5 0 C6.50256989 2.64440376 8.0021612 5.29041852 9.5 7.9375 C9.92925781 8.69224609 10.35851562 9.44699219 10.80078125 10.22460938 C11.40986328 11.30258789 11.40986328 11.30258789 12.03125 12.40234375 C12.40830078 13.06741943 12.78535156 13.73249512 13.17382812 14.41772461 C14 16 14 16 14 17 C12.35 17 10.7 17 9 17 C8.67 15.68 8.34 14.36 8 13 C5.03 13 2.06 13 -1 13 C-1.33 14.65 -1.66 16.3 -2 18 C-3.32 17.67 -4.64 17.34 -6 17 C-5.566875 15.85660156 -5.13375 14.71320313 -4.6875 13.53515625 C-4.12491398 12.04430329 -3.56241865 10.55341611 -3 9.0625 C-2.71382812 8.30775391 -2.42765625 7.55300781 -2.1328125 6.77539062 C-0.65450732 3.47288016 -0.65450732 3.47288016 0 0 Z " fill="#F6F6F6" transform="translate(198,337)"/>
<path d="M0 0 C1.80932617 0.41552734 1.80932617 0.41552734 3.79296875 1.3359375 C4.50517578 1.65820312 5.21738281 1.98046875 5.95117188 2.3125 C6.68916016 2.663125 7.42714844 3.01375 8.1875 3.375 C8.93708984 3.71789063 9.68667969 4.06078125 10.45898438 4.4140625 C12.31169351 5.26371255 14.15662546 6.13028359 16 7 C16 7.99 16 8.98 16 10 C14 11 14 11 11.5625 10.375 C10.716875 10.25125 9.87125 10.1275 9 10 C7.2912354 11.37514541 7.2912354 11.37514541 6 13 C5.34 13 4.68 13 4 13 C4.33 14.98 4.66 16.96 5 19 C4.01 19.66 3.02 20.32 2 21 C1.49095343 19.12743583 0.99317545 17.25180659 0.5 15.375 C0.2215625 14.33085938 -0.056875 13.28671875 -0.34375 12.2109375 C-0.99118596 9.04312582 -1.1161292 6.22258533 -1 3 C-1.66 2.67 -2.32 2.34 -3 2 C-2.01 1.34 -1.02 0.68 0 0 Z " fill="#F4F4F4" transform="translate(88,54)"/>
<path d="M0 0 C5.94 0 11.88 0 18 0 C17.34 1.65 16.68 3.3 16 5 C13.525 4.505 13.525 4.505 11 4 C8.77076223 8.32734391 9.07529447 11.28400182 10 16 C9.01 16 8.02 16 7 16 C5.29939257 13.86175784 3.79794342 11.77910139 2.3125 9.5 C1.89677734 8.87996094 1.48105469 8.25992188 1.05273438 7.62109375 C0.02596494 6.08684057 -0.98822225 4.54418071 -2 3 C-1.34 2.67 -0.68 2.34 0 2 C0 1.34 0 0.68 0 0 Z " fill="#F3F3F3" transform="translate(47,104)"/>
<path d="M0 0 C0.99 0 1.98 0 3 0 C2.98839844 0.92683594 2.97679687 1.85367187 2.96484375 2.80859375 C2.95582031 4.00613281 2.94679687 5.20367187 2.9375 6.4375 C2.92589844 7.63246094 2.91429687 8.82742187 2.90234375 10.05859375 C2.66098208 12.88873341 2.66098208 12.88873341 4 14 C6.67058851 14.14115161 9.32432238 14.04247107 12 14 C12.66 9.71 13.32 5.42 14 1 C15.32 1 16.64 1 18 1 C17.74481529 3.27264504 17.47030939 5.54312705 17.1875 7.8125 C17.03667969 9.07707031 16.88585937 10.34164063 16.73046875 11.64453125 C16 15 16 15 14.734375 16.92578125 C12.4136244 18.36318309 10.78070711 18.39952518 8.0625 18.375 C7.20785156 18.38273437 6.35320312 18.39046875 5.47265625 18.3984375 C2.44787068 17.91103129 1.09767355 17.2371977 -1 15 C-1.42578125 12.44140625 -1.42578125 12.44140625 -1.3125 9.5625 C-1.28800781 8.61503906 -1.26351562 7.66757812 -1.23828125 6.69140625 C-1.03038399 4.34318962 -0.65645306 2.25755808 0 0 Z " fill="#F4F4F4" transform="translate(204,19)"/>
<path d="M0 0 C2.875 2 2.875 2 5 4 C4.6875 6.875 4.6875 6.875 4 10 C0.50875983 12.32749345 -0.89222251 12.50299316 -5 12 C-7.83171242 9.98799381 -8.84987863 8.87928233 -9.4375 5.4375 C-9 3 -9 3 -7.875 1.1875 C-5.07306524 -0.58705868 -3.25598452 -0.45583783 0 0 Z " fill="#525252" transform="translate(159,336)"/>
<path d="M0 0 C0.66 0.66 1.32 1.32 2 2 C1.9375 5.4375 1.9375 5.4375 1 9 C-1.1875 11 -1.1875 11 -4 12 C-7.70028236 11.78233633 -9.35491041 11.64508959 -12 9 C-12.50500243 5.80165127 -12.27331609 4.4213623 -10.5 1.6875 C-6.80513545 -0.80653357 -4.41108115 -0.42687882 0 0 Z " fill="#555555" transform="translate(251,331)"/>
<path d="M0 0 C12.1100928 -0.06987079 24.22013672 -0.12299811 36.33039093 -0.15543652 C41.95519694 -0.17101448 47.57986385 -0.19210707 53.20458984 -0.22631836 C58.6446314 -0.25919486 64.08454014 -0.27691199 69.52467346 -0.28463173 C71.58803901 -0.29012491 73.65139826 -0.30084982 75.71470642 -0.31719017 C87.67356252 -0.40803066 99.41387786 -0.3497172 111 3 C111.99 3.99 111.99 3.99 113 5 C111.35369672 4.85957123 109.70795821 4.71250671 108.0625 4.5625 C106.68771484 4.44068359 106.68771484 4.44068359 105.28515625 4.31640625 C103 4 103 4 102 3 C91.08789581 1.50976137 79.90728584 1.78429201 68.91796875 1.68359375 C67.00840352 1.66297615 65.09884237 1.64197859 63.18928528 1.62062073 C58.2065667 1.56589559 53.22381039 1.51627157 48.24102783 1.46777344 C43.13916742 1.41719232 38.03736058 1.36169899 32.93554688 1.30664062 C22.95707721 1.19966694 12.97856066 1.09809164 3 1 C3 1.99 3 2.98 3 4 C2.01 4 1.02 4 0 4 C0 2.68 0 1.36 0 0 Z " fill="#E4973E" transform="translate(127,139)"/>
<path d="M0 0 C0.7734375 0.00386719 1.546875 0.00773437 2.34375 0.01171875 C4.5 0.3125 4.5 0.3125 7.5 2.3125 C8.1875 4.4375 8.1875 4.4375 8.5 6.3125 C5.86 6.3125 3.22 6.3125 0.5 6.3125 C0.5 6.9725 0.5 7.6325 0.5 8.3125 C2.15 8.3125 3.8 8.3125 5.5 8.3125 C5.17 9.6325 4.84 10.9525 4.5 12.3125 C-2.78089888 12.79789326 -2.78089888 12.79789326 -6 10.625 C-7.79268598 7.86127578 -8.08006212 6.54427469 -7.5 3.3125 C-5.24333316 0.35548828 -3.65992843 -0.07929845 0 0 Z " fill="#535353" transform="translate(180.5,339.6875)"/>
<path d="M0 0 C0 0.99 0 1.98 0 3 C-14.71371649 6.82654413 -29.40246212 6.341953 -44.5 6.1875 C-47.07681507 6.17242237 -49.65363871 6.15873943 -52.23046875 6.14648438 C-58.48716866 6.11373149 -64.74354338 6.06377745 -71 6 C-71 5.34 -71 4.68 -71 4 C-70.25355225 3.99413376 -69.50710449 3.98826752 -68.73803711 3.98222351 C-61.67656863 3.92413191 -54.61541358 3.85196205 -47.55426025 3.76428509 C-43.92470555 3.71970595 -40.29525986 3.68042326 -36.66552734 3.65356445 C-33.15749649 3.62740597 -29.64988802 3.58691734 -26.14212036 3.53681374 C-24.16377354 3.51220113 -22.18526287 3.50213277 -20.20678711 3.49235535 C-13.20601282 3.37883131 -6.42489944 0 0 0 Z " fill="#EDA451" transform="translate(234,244)"/>
<path d="M0 0 C3.125 0.375 3.125 0.375 5.5 1.9375 C7.70346465 5.24269698 7.55744601 7.48298594 7.125 11.375 C6.465 12.035 5.805 12.695 5.125 13.375 C1.44795772 13.24128937 -0.98502981 13.15013533 -3.8125 10.6875 C-5.17442264 7.72331544 -5.22571145 5.60154537 -4.875 2.375 C-2.875 0.375 -2.875 0.375 0 0 Z " fill="#515151" transform="translate(320.875,87.625)"/>
<path d="M0 0 C2.57933662 0.04622467 3.85347187 0.09726543 6.125 1.375 C7.62186954 4.18163039 7.58035315 6.12757843 7.125 9.25 C5.5625 11.125 5.5625 11.125 3.125 12.25 C-0.625 12.4375 -0.625 12.4375 -3.875 12.25 C-4.06901633 10.43818595 -4.25504375 8.62551468 -4.4375 6.8125 C-4.54191406 5.80316406 -4.64632812 4.79382813 -4.75390625 3.75390625 C-4.79386719 2.92761719 -4.83382812 2.10132813 -4.875 1.25 C-3.875 0.25 -3.875 0.25 0 0 Z " fill="#555555" transform="translate(222.875,336.75)"/>
<path d="M0 0 C3.96 0 7.92 0 12 0 C12 7.92 12 15.84 12 24 C8.04 24.495 8.04 24.495 4 25 C2.0769111 26.9230889 2.74678162 30.47070485 2.68359375 33.09765625 C2.66281265 33.80651474 2.64203156 34.51537323 2.62062073 35.24571228 C2.55505402 37.51787305 2.4962077 39.79015264 2.4375 42.0625 C2.39432151 43.59962183 2.35070745 45.1367315 2.30664062 46.67382812 C2.19936551 50.4490959 2.09811863 54.2244836 2 58 C1.34 58 0.68 58 0 58 C0 46.12 0 34.24 0 22 C3.63 22 7.26 22 11 22 C11 15.07 11 8.14 11 1 C7.37 1 3.74 1 0 1 C0 0.67 0 0.34 0 0 Z " fill="#FCE9C3" transform="translate(163,190)"/>
<path d="M0 0 C7.29368256 -0.04651906 14.58733267 -0.08196802 21.88113403 -0.10362434 C25.26862868 -0.11402286 28.65602116 -0.12810933 32.04345703 -0.15087891 C35.94566514 -0.17522296 39.84772963 -0.18650525 43.75 -0.1953125 C45.55827271 -0.21079636 45.55827271 -0.21079636 47.40307617 -0.22659302 C53.63513689 -0.22741841 59.03897059 0.14360183 65 2 C65 2.33 65 2.66 65 3 C58.40210815 3.02559279 51.80422934 3.0429676 45.20629883 3.05493164 C42.96703615 3.05992532 40.72777667 3.06672257 38.48852539 3.07543945 C6.08103356 3.19833202 6.08103356 3.19833202 0 0 Z " fill="#FEEACB" transform="translate(163,160)"/>
<path d="M0 0 C1.9375 0.75 1.9375 0.75 4 2 C4.6875 3.875 4.6875 3.875 5 6 C5.165 6.66 5.33 7.32 5.5 8 C5.665 8.66 5.83 9.32 6 10 C6.20625 10.721875 6.4125 11.44375 6.625 12.1875 C6.74875 12.785625 6.8725 13.38375 7 14 C6 15 6 15 3.71484375 15.09765625 C2.34005859 15.08025391 2.34005859 15.08025391 0.9375 15.0625 C0.01839844 15.05347656 -0.90070313 15.04445313 -1.84765625 15.03515625 C-2.55792969 15.02355469 -3.26820313 15.01195312 -4 15 C-3.835 14.236875 -3.67 13.47375 -3.5 12.6875 C-2.83802725 9.12939648 -3.04890038 6.44773611 -4 3 C-2.68 2.01 -1.36 1.02 0 0 Z " fill="#F2F2F2" transform="translate(153,22)"/>
<path d="M0 0 C1.32 0.66 2.64 1.32 4 2 C3.01 3.98 2.02 5.96 1 8 C1.68707031 8.18175781 2.37414063 8.36351563 3.08203125 8.55078125 C3.98308594 8.80214844 4.88414063 9.05351563 5.8125 9.3125 C6.70582031 9.55613281 7.59914063 9.79976562 8.51953125 10.05078125 C11.05247738 11.0200819 12.2716496 11.95009604 14 14 C13.01 15.485 13.01 15.485 12 17 C7.71 15.02 3.42 13.04 -1 11 C-1.66 12.98 -2.32 14.96 -3 17 C-3.99 16.67 -4.98 16.34 -6 16 C-4.02 10.72 -2.04 5.44 0 0 Z " fill="#F1F1F1" transform="translate(39,115)"/>
<path d="M0 0 C1.32 0.33 2.64 0.66 4 1 C3.01 5.62 2.02 10.24 1 15 C6.94 15.99 6.94 15.99 13 17 C12.34 18.32 11.68 19.64 11 21 C5.72 19.68 0.44 18.36 -5 17 C-3.35 11.39 -1.7 5.78 0 0 Z " fill="#EDEDED" transform="translate(227,22)"/>
<path d="M0 0 C2.64 0 5.28 0 8 0 C8 0.33 8 0.66 8 1 C5.69 1 3.38 1 1 1 C1 7.6 1 14.2 1 21 C4.3 21 7.6 21 11 21 C11 21.66 11 22.32 11 23 C12.8871875 22.7525 12.8871875 22.7525 14.8125 22.5 C18.57405622 22.00668115 22.20074985 22 26 22 C25.625 23.9375 25.625 23.9375 25 26 C24.34 26.33 23.68 26.66 23 27 C22.67 27.66 22.34 28.32 22 29 C20.96875 28.38125 19.9375 27.7625 18.875 27.125 C12.92088888 24.09420698 6.56675554 23.75770256 0 23 C0 15.41 0 7.82 0 0 Z " fill="#EB9A41" transform="translate(214,190)"/>
<path d="M0 0 C2 2 2 2 2.25 5 C2 8 2 8 0 10 C0 9.34 0 8.68 0 8 C-2.97 9.32 -5.94 10.64 -9 12 C-10.25 9.875 -10.25 9.875 -11 7 C-8.06181427 1.54336937 -6.22206096 -0.46665457 0 0 Z " fill="#EBEBEB" transform="translate(115,39)"/>
<path d="M0 0 C0.66 0.33 1.32 0.66 2 1 C1.46375 1.515625 0.9275 2.03125 0.375 2.5625 C-1.41296883 5.10114009 -1.41296883 5.10114009 -0.1875 8.75 C0.4003125 10.35875 0.4003125 10.35875 1 12 C1.928125 12.144375 2.85625 12.28875 3.8125 12.4375 C7 13 7 13 10 14 C8.16115216 16.45179712 7.19735411 16.96567755 4.125 17.5 C1 17 1 17 -1.875 14.9375 C-4 12 -4 12 -4.5625 8.5 C-3.92501775 4.53344376 -2.76383547 2.85020533 0 0 Z " fill="#F0F0F0" transform="translate(240,329)"/>
<path d="M0 0 C1.32 0.66 2.64 1.32 4 2 C3.34 2 2.68 2 2 2 C2 7.94 2 13.88 2 20 C-0.475 19.01 -0.475 19.01 -3 18 C-2.34 13.38 -1.68 8.76 -1 4 C-1.66 3.67 -2.32 3.34 -3 3 C-2.01 2.01 -1.02 1.02 0 0 Z " fill="#F6F6F6" transform="translate(117,318)"/>
<path d="M0 0 C-0.33 1.32 -0.66 2.64 -1 4 C-0.34 4.33 0.32 4.66 1 5 C1.40729228 7.32156597 1.74438677 9.6568787 2 12 C1.01 12 0.02 12 -1 12 C-3.04296875 9.59375 -3.04296875 9.59375 -5.1875 6.5 C-5.90292969 5.4790625 -6.61835937 4.458125 -7.35546875 3.40625 C-7.89816406 2.6121875 -8.44085938 1.818125 -9 1 C-6.80036907 -3.39926185 -3.61934676 -1.66294311 0 0 Z " fill="#EDEDED" transform="translate(55,108)"/>
<path d="M0 0 C2.97 0.495 2.97 0.495 6 1 C4.68 5.95 3.36 10.9 2 16 C0.35 15.67 -1.3 15.34 -3 15 C-2.01 10.05 -1.02 5.1 0 0 Z " fill="#595959" transform="translate(222,20)"/>
<path d="M0 0 C0.66 0.33 1.32 0.66 2 1 C2 1.99 2 2.98 2 4 C-3.28 5.98 -8.56 7.96 -14 10 C-14.33 8.68 -14.66 7.36 -15 6 C-13.06305322 5.18618205 -11.12542289 4.37399084 -9.1875 3.5625 C-8.10855469 3.11003906 -7.02960938 2.65757812 -5.91796875 2.19140625 C-3.9704874 1.39624987 -1.99561057 0.66520352 0 0 Z " fill="#F0F0F0" transform="translate(348,126)"/>
<path d="M0 0 C0.66 0 1.32 0 2 0 C4.64562875 3.96844313 4.07700963 6.66868515 3.875 11.30859375 C4.00590109 14.12705788 4.70790338 15.55040016 6 18 C5.67 18.66 5.34 19.32 5 20 C3.68 20 2.36 20 1 20 C-1.01495907 20.61998741 -3.0187415 21.27954236 -5 22 C-3.73046875 20.53515625 -2.4609375 19.0703125 -1.19140625 17.60546875 C1.08510756 14.53777309 1.13594682 11.67813146 1.125 8 C1.12886719 6.700625 1.12886719 6.700625 1.1328125 5.375 C1.09594205 2.84988305 1.09594205 2.84988305 0 0 Z " fill="#EC9739" transform="translate(239,222)"/>
<path d="M0 0 C2.475 0.99 2.475 0.99 5 2 C5 3.65 5 5.3 5 7 C4.01 7.33 3.02 7.66 2 8 C2.33 9.98 2.66 11.96 3 14 C2.01 14.66 1.02 15.32 0 16 C-0.66 12.7 -1.32 9.4 -2 6 C-1.67 6 -1.34 6 -1 6 C-0.67 4.02 -0.34 2.04 0 0 Z " fill="#EAEAEA" transform="translate(90,59)"/>
<path d="M0 0 C3.3 0.33 6.6 0.66 10 1 C9.74438677 3.3431213 9.40729228 5.67843403 9 8 C6.47524538 9.26237731 4.68799534 9.09856404 1.875 9.0625 C0.96492187 9.05347656 0.05484375 9.04445313 -0.8828125 9.03515625 C-1.58148438 9.02355469 -2.28015625 9.01195312 -3 9 C-3 8.34 -3 7.68 -3 7 C-0.36 6.67 2.28 6.34 5 6 C5.33 5.01 5.66 4.02 6 3 C4.02 3.33 2.04 3.66 0 4 C0 2.68 0 1.36 0 0 Z " fill="#F3F3F3" transform="translate(180,345)"/>
<path d="M0 0 C0.99 0 1.98 0 3 0 C2.70540991 3.53508103 2.25118587 4.76203444 -0.375 7.25 C-3 9 -3 9 -6 10 C-6 9.34 -6 8.68 -6 8 C-7.98 8 -9.96 8 -12 8 C-11.67 7.34 -11.34 6.68 -11 6 C-9.906875 5.71125 -8.81375 5.4225 -7.6875 5.125 C-3.84534244 3.95281634 -2.65681587 2.84658843 0 0 Z " fill="#606060" transform="translate(81,74)"/>
<path d="M0 0 C0.99 0 1.98 0 3 0 C3 4.62 3 9.24 3 14 C1.68 14.33 0.36 14.66 -1 15 C-1.02715383 13.25008666 -1.04646551 11.50005055 -1.0625 9.75 C-1.07410156 8.77546875 -1.08570313 7.8009375 -1.09765625 6.796875 C-1.01195577 4.34241322 -0.70706066 2.33831086 0 0 Z " fill="#F9F9F9" transform="translate(204,19)"/>
<path d="M0 0 C2.64 1.32 5.28 2.64 8 4 C5.9375 6.0625 5.9375 6.0625 3 8 C-0.8125 7.75 -0.8125 7.75 -4 7 C-2.68 4.69 -1.36 2.38 0 0 Z " fill="#595959" transform="translate(267,47)"/>
<path d="M0 0 C-0.0625 1.75 -0.0625 1.75 -1 4 C-3.24164322 5.59501537 -5.53566643 6.74543018 -8 8 C-8.66 6.35 -9.32 4.7 -10 3 C-6.48812804 0.59185923 -4.27343092 -0.36629408 0 0 Z " fill="#5C5C5C" transform="translate(114,43)"/>
<path d="M0 0 C2.97 0 5.94 0 9 0 C9 1.32 9 2.64 9 4 C8 5 8 5 6.15234375 5.09765625 C4.1015625 5.06510417 2.05078125 5.03255208 0 5 C0 3.35 0 1.7 0 0 Z " fill="#5A5A5A" transform="translate(185,28)"/>
<path d="M0 0 C0.33 0.66 0.66 1.32 1 2 C1.99 2 2.98 2 4 2 C4.66 4.31 5.32 6.62 6 9 C4.88625 8.979375 3.7725 8.95875 2.625 8.9375 C-0.83215921 8.73619282 -0.83215921 8.73619282 -3 10 C-2.01 6.7 -1.02 3.4 0 0 Z " fill="#E4E4E4" transform="translate(198,339)"/>
<path d="M0 0 C1.98 1.65 3.96 3.3 6 5 C5.67 6.32 5.34 7.64 5 9 C1.21388773 8.45912682 -0.55400767 6.88277668 -3 4 C-3 3.34 -3 2.68 -3 2 C-2.01 1.34 -1.02 0.68 0 0 Z " fill="#565656" transform="translate(308,69)"/>
<path d="M0 0 C3.73487777 0.4979837 5.81237635 0.87491756 9 3 C9 3.99 9 4.98 9 6 C6.03 5.67 3.06 5.34 0 5 C-0.33 4.01 -0.66 3.02 -1 2 C-0.67 1.34 -0.34 0.68 0 0 Z " fill="#565656" transform="translate(129,335)"/>
<path d="M0 0 C3.01574271 1.03991128 3.97991051 1.96914829 5.75 4.6875 C7.54101967 9.43370213 7.63606644 13.13155482 6 17.9375 C5.505 18.9584375 5.505 18.9584375 5 20 C4.67 20 4.34 20 4 20 C4.06960937 18.67935547 4.06960937 18.67935547 4.140625 17.33203125 C4.17671875 16.17058594 4.2128125 15.00914062 4.25 13.8125 C4.29640625 12.66394531 4.3428125 11.51539063 4.390625 10.33203125 C3.92673046 6.37501079 2.62281182 4.90677767 0 2 C0 1.34 0 0.68 0 0 Z " fill="#FEEDCF" transform="translate(231,164)"/>
<path d="M0 0 C0.66 0.33 1.32 0.66 2 1 C0.44396229 4.81936528 -1.95604931 7.26044438 -5 10 C-5.66 10 -6.32 10 -7 10 C-6.875 7.25 -6.875 7.25 -6 4 C-2.9375 1.625 -2.9375 1.625 0 0 Z " fill="#5A5A5A" transform="translate(65,83)"/>
<path d="M0 0 C6.31454394 0.29234 11.72670749 1.33272223 17 5 C17.99 6.485 17.99 6.485 19 8 C18.05125 7.979375 17.1025 7.95875 16.125 7.9375 C13.09333717 7.77448174 13.09333717 7.77448174 11 9 C11.33 7.68 11.66 6.36 12 5 C8.04 3.68 4.08 2.36 0 1 C0 0.67 0 0.34 0 0 Z " fill="#FEF4DA" transform="translate(219,213)"/>
<path d="M0 0 C4.08471238 3.75351949 7.58187721 7.3355047 8.23706055 13.07763672 C8.29413025 15.35095487 8.2626143 17.60231079 8.1875 19.875 C8.17396484 20.65875 8.16042969 21.4425 8.14648438 22.25 C8.11141789 24.16696782 8.05762072 26.08357751 8 28 C7.67 28 7.34 28 7 28 C6.96261719 27.02160156 6.92523438 26.04320312 6.88671875 25.03515625 C6.51143618 17.55158033 5.83002442 11.01353877 3 4 C2.01 4 1.02 4 0 4 C0 2.68 0 1.36 0 0 Z " fill="#E79B49" transform="translate(258,154)"/>
<path d="M0 0 C0.66 1.32 1.32 2.64 2 4 C0.90241493 4.84198307 -0.20335317 5.67330671 -1.3125 6.5 C-1.92738281 6.9640625 -2.54226562 7.428125 -3.17578125 7.90625 C-5 9 -5 9 -8 9 C-7.66032174 5.82966958 -7.00130809 5.00117393 -4.5625 2.8125 C-2 1 -2 1 0 0 Z " fill="#606060" transform="translate(79,67)"/>
<path d="M0 0 C2.64 0.99 5.28 1.98 8 3 C8 4.32 8 5.64 8 7 C4.65626525 6.44271087 1.96687001 5.64826111 -1 4 C-0.67 2.68 -0.34 1.36 0 0 Z " fill="#5B5B5B" transform="translate(132,328)"/>
<path d="M0 0 C0.66 0.33 1.32 0.66 2 1 C3.04787701 11.27917446 3.04787701 11.27917446 0.72265625 15.09765625 C-3.49978077 18.99455391 -7.36089606 19.8021367 -13 20 C-10 18 -10 18 -6.5 16.75 C-2.90094338 15.28155282 -2.90094338 15.28155282 -1.0625 12.375 C0.27114942 8.13870185 0.26399844 4.39997394 0 0 Z " fill="#E89C47" transform="translate(237,170)"/>
<path d="M0 0 C5.53846154 0.61538462 5.53846154 0.61538462 7.875 2.5625 C8.431875 3.2740625 8.431875 3.2740625 9 4 C8.34 5.65 7.68 7.3 7 9 C5.02 9 3.04 9 1 9 C1 8.34 1 7.68 1 7 C1.99 6.67 2.98 6.34 4 6 C4.33 5.01 4.66 4.02 5 3 C3.35 2.67 1.7 2.34 0 2 C0 1.34 0 0.68 0 0 Z " fill="#F4F4F4" transform="translate(251,39)"/>
<path d="M0 0 C0 0.66 0 1.32 0 2 C0.99 2.33 1.98 2.66 3 3 C1.56445975 3.50559908 0.1264798 4.0042749 -1.3125 4.5 C-2.51326172 4.91765625 -2.51326172 4.91765625 -3.73828125 5.34375 C-6 6 -6 6 -9 6 C-8.6875 4.125 -8.6875 4.125 -8 2 C-4.77208445 -0.1519437 -3.71599191 -0.20086443 0 0 Z " fill="#5A5A5A" transform="translate(270,321)"/>
<path d="M0 0 C3.81805752 3.81805752 3.16210935 8.36757381 3.1875 13.5625 C3.19974609 14.23474609 3.21199219 14.90699219 3.22460938 15.59960938 C3.23562975 19.29878237 3.10685378 20.83971933 1 24 C1.01160156 23.09636719 1.02320313 22.19273437 1.03515625 21.26171875 C1.04417969 20.08222656 1.05320312 18.90273437 1.0625 17.6875 C1.07410156 16.51574219 1.08570313 15.34398437 1.09765625 14.13671875 C1.14899898 10.96940805 1.14899898 10.96940805 0 8 C-0.12781786 5.32605036 -0.04391871 2.67904143 0 0 Z " fill="#E6A04E" transform="translate(267,222)"/>
<path d="M0 0 C-1.13151761 3.39455284 -2.4287232 4.57997478 -5 7 C-5.5775 7.5775 -6.155 8.155 -6.75 8.75 C-7.36875 9.36875 -7.36875 9.36875 -8 10 C-8.36272727 3.59181818 -8.36272727 3.59181818 -6.8125 1.0625 C-4.43958382 -0.32851983 -2.70313576 -0.21917317 0 0 Z " fill="#F7F7F7" transform="translate(321,85)"/>
<path d="M0 0 C2.97 0 5.94 0 9 0 C9 1.32 9 2.64 9 4 C6.03 4 3.06 4 0 4 C0 2.68 0 1.36 0 0 Z " fill="#535353" transform="translate(185,21)"/>
<path d="M0 0 C0.99 0.33 1.98 0.66 3 1 C2.125 5.875 2.125 5.875 1 7 C-0.99958364 7.04080783 -3.00045254 7.04254356 -5 7 C-5.33 6.01 -5.66 5.02 -6 4 C-4.35 3.67 -2.7 3.34 -1 3 C-0.67 2.01 -0.34 1.02 0 0 Z " fill="#F3F3F3" transform="translate(139,338)"/>
<path d="M0 0 C0.66 0.33 1.32 0.66 2 1 C-1.51053255 6.35818126 -6.00530434 8.18765015 -12 10 C-12.66 9.34 -13.32 8.68 -14 8 C-13.07316406 7.50628906 -12.14632812 7.01257813 -11.19140625 6.50390625 C-9.98172045 5.85686501 -8.77208778 5.20972446 -7.5625 4.5625 C-6.95083984 4.23701172 -6.33917969 3.91152344 -5.70898438 3.57617188 C-2.66283794 2.06284858 -2.66283794 2.06284858 0 0 Z " fill="#FEF0D0" transform="translate(256,194)"/>
<path d="M0 0 C0.5625 1.9375 0.5625 1.9375 1 4 C0 5 0 5 -2.5625 5.0625 C-3.7690625 5.0315625 -3.7690625 5.0315625 -5 5 C-5.33 3.35 -5.66 1.7 -6 0 C-3.50907189 -1.24546405 -2.58919267 -0.7767578 0 0 Z " fill="#535353" transform="translate(159,32)"/>
<path d="M0 0 C0.33 0.66 0.66 1.32 1 2 C0.67 2.66 0.34 3.32 0 4 C1.32 4.33 2.64 4.66 4 5 C1.03 6.32 -1.94 7.64 -5 9 C-5.33 8.01 -5.66 7.02 -6 6 C-4 4 -2 2 0 0 Z " fill="#595959" transform="translate(330,101)"/>
<path d="M0 0 C1.98 0.495 1.98 0.495 4 1 C4.12375 1.639375 4.2475 2.27875 4.375 2.9375 C4.684375 3.9584375 4.684375 3.9584375 5 5 C5.66 5.33 6.32 5.66 7 6 C6.01 6.66 5.02 7.32 4 8 C2.35 6.68 0.7 5.36 -1 4 C-0.67 2.68 -0.34 1.36 0 0 Z " fill="#565656" transform="translate(71,81)"/>
<path d="M0 0 C1.85274014 3.12649899 2.37198336 5.37316225 2 9 C1.01 10.485 1.01 10.485 0 12 C-0.66 11.67 -1.32 11.34 -2 11 C-1.95875 10.071875 -1.9175 9.14375 -1.875 8.1875 C-1.72863661 4.84190281 -1.72863661 4.84190281 -4 2 C-2.68 1.34 -1.36 0.68 0 0 Z " fill="#5A5A5A" transform="translate(88,67)"/>
<path d="M0 0 C2.97 1.98 2.97 1.98 6 4 C5.34 5.32 4.68 6.64 4 8 C0.83884224 6.63016497 0.0072908 6.0109362 -2 3 C-1.34 2.01 -0.68 1.02 0 0 Z " fill="#5A5A5A" transform="translate(287,60)"/>
<path d="M0 0 C-0.99 1.485 -0.99 1.485 -2 3 C-2.33 3.99 -2.66 4.98 -3 6 C-3.99 6 -4.98 6 -6 6 C-8 3 -8 3 -8 0 C-5.13822943 -1.43088528 -3.06624227 -0.59991697 0 0 Z " fill="#585858" transform="translate(116,52)"/>
<path d="M0 0 C0.99 0.33 1.98 0.66 3 1 C2.39816251 3.02045442 1.72693904 5.02111039 1 7 C0.01 7.495 0.01 7.495 -1 8 C-1 7.34 -1 6.68 -1 6 C-1.99 5.67 -2.98 5.34 -4 5 C-2.68 3.35 -1.36 1.7 0 0 Z " fill="#616161" transform="translate(68,89)"/>
<path d="M0 0 C1.5 1.375 1.5 1.375 3 3 C3 3.66 3 4.32 3 5 C2.34 5 1.68 5 1 5 C1.33 6.65 1.66 8.3 2 10 C0.68 10 -0.64 10 -2 10 C-2 7.03 -2 4.06 -2 1 C-1.34 0.67 -0.68 0.34 0 0 Z " fill="#555555" transform="translate(162,19)"/>
<path d="M0 0 C0.99 0.99 1.98 1.98 3 3 C1.35 4.32 -0.3 5.64 -2 7 C-3.32 5.02 -4.64 3.04 -6 1 C-4.7934375 1.0309375 -4.7934375 1.0309375 -3.5625 1.0625 C-1.06645115 1.29633621 -1.06645115 1.29633621 0 0 Z " fill="#575757" transform="translate(298,68)"/>
<path d="M0 0 C-0.1875 1.875 -0.1875 1.875 -1 4 C-3.5625 5.25 -3.5625 5.25 -6 6 C-6 5.34 -6 4.68 -6 4 C-6.99 3.34 -7.98 2.68 -9 2 C-5.62902617 0.50178941 -3.79557881 0 0 0 Z " fill="#5C5C5C" transform="translate(273,328)"/>
<path d="M0 0 C5.53846154 -0.36923077 5.53846154 -0.36923077 7.875 1.5 C8.24625 1.995 8.6175 2.49 9 3 C8.01 3.66 7.02 4.32 6 5 C5.34 5.66 4.68 6.32 4 7 C3.71125 6.401875 3.4225 5.80375 3.125 5.1875 C1.95257974 2.80672208 1.95257974 2.80672208 0 0 Z " fill="#5C5C5C" transform="translate(153,336)"/>
<path d="M0 0 C-1.75 2 -1.75 2 -4 4 C-5.32 4 -6.64 4 -8 4 C-8 2.68 -8 1.36 -8 0 C-2.25 -1.125 -2.25 -1.125 0 0 Z " fill="#DCDCDC" transform="translate(270,334)"/>
<path d="M0 0 C0.33 0 0.66 0 1 0 C1.42820102 3.63970867 0.97413512 5.04569463 -0.875 8.3125 C-1.926875 9.6428125 -1.926875 9.6428125 -3 11 C-3.66 11 -4.32 11 -5 11 C-5 11.66 -5 12.32 -5 13 C-5.66 12.67 -6.32 12.34 -7 12 C-6.21625 10.948125 -5.4325 9.89625 -4.625 8.8125 C-2.59491421 5.98303198 -1.10887021 3.32661064 0 0 Z " fill="#FDECD0" transform="translate(268,246)"/>
<path d="M0 0 C1.65 0 3.3 0 5 0 C4.67 1.32 4.34 2.64 4 4 C1.36 4 -1.28 4 -4 4 C-3.01 3.67 -2.02 3.34 -1 3 C-0.67 2.01 -0.34 1.02 0 0 Z " fill="#6D6D6D" transform="translate(181,348)"/>
<path d="M0 0 C0.66 0.33 1.32 0.66 2 1 C0.35 2.98 -1.3 4.96 -3 7 C-3.66 6.67 -4.32 6.34 -5 6 C-5 4.68 -5 3.36 -5 2 C-2.625 0.9375 -2.625 0.9375 0 0 Z " fill="#575757" transform="translate(132,43)"/>
<path d="M0 0 C0 0.33 0 0.66 0 1 C-1.0828125 1.061875 -1.0828125 1.061875 -2.1875 1.125 C-6.23274817 2.38352165 -7.49481257 4.63589117 -10 8 C-10.66 7.34 -11.32 6.68 -12 6 C-7.99402755 0.79223581 -6.57420945 -0.1429176 0 0 Z " fill="#DADADA" transform="translate(250,327)"/>
<path d="M0 0 C0.33 0 0.66 0 1 0 C1.32712342 6.13053511 1.39366878 10.62669111 -2 16 C-2.33 16 -2.66 16 -3 16 C-3 14.02 -3 12.04 -3 10 C-2.34 9.67 -1.68 9.34 -1 9 C-0.53348793 6.87423218 -0.53348793 6.87423218 -0.375 4.4375 C-0.30023438 3.61121094 -0.22546875 2.78492188 -0.1484375 1.93359375 C-0.09945312 1.29550781 -0.05046875 0.65742188 0 0 Z " fill="#FEF0CC" transform="translate(240,225)"/>
<path d="M0 0 C2.2477975 2.05233685 3.0022242 3.00667261 4 6 C3.01 7.485 3.01 7.485 2 9 C0 8 0 8 -0.6875 6.1875 C-1.02688538 3.81180233 -0.72856341 2.26664171 0 0 Z " fill="#5A5A5A" transform="translate(102,52)"/>
<path d="M0 0 C2.97 0.33 5.94 0.66 9 1 C8.01 1.33 7.02 1.66 6 2 C6 2.66 6 3.32 6 4 C3.03 3.505 3.03 3.505 0 3 C0 2.01 0 1.02 0 0 Z " fill="#E6E6E6" transform="translate(205,33)"/>
<path d="M0 0 C-0.33 1.32 -0.66 2.64 -1 4 C-4.63 3.34 -8.26 2.68 -12 2 C-12 1.67 -12 1.34 -12 1 C-7.95858806 0.36605303 -4.0934693 -0.12404452 0 0 Z " fill="#D9D9D9" transform="translate(189,338)"/>
<path d="M0 0 C4.56454251 0.54339792 7.9728176 1.79463821 12 4 C7.99434629 5.60226148 4.91390601 4.47694566 1 3 C0.67 2.01 0.34 1.02 0 0 Z " fill="#E69B42" transform="translate(240,144)"/>
<path d="M0 0 C1.9375 0.8125 1.9375 0.8125 4 2 C4.33 2.99 4.66 3.98 5 5 C3.35 5.33 1.7 5.66 0 6 C0 4.02 0 2.04 0 0 Z " fill="#727272" transform="translate(127,36)"/>
<path d="M0 0 C1.67542976 0.28604898 3.34385343 0.61781233 5 1 C5.33 2.65 5.66 4.3 6 6 C5.01 6 4.02 6 3 6 C2.67 5.01 2.34 4.02 2 3 C1.01 2.34 0.02 1.68 -1 1 C-0.67 0.67 -0.34 0.34 0 0 Z " fill="#F6F6F6" transform="translate(155,22)"/>
<path d="M0 0 C3.26954202 0.56371414 4.82575883 1.49962266 7 4 C6.01 5.485 6.01 5.485 5 7 C0 1.125 0 1.125 0 0 Z " fill="#454545" transform="translate(52,299)"/>
<path d="M0 0 C0.66 0.33 1.32 0.66 2 1 C0.38405168 3.04119788 -1.2856382 5.04072937 -3 7 C-3.66 7 -4.32 7 -5 7 C-5 6.01 -5 5.02 -5 4 C-4.34 4 -3.68 4 -3 4 C-2.67 3.01 -2.34 2.02 -2 1 C-1.34 0.67 -0.68 0.34 0 0 Z " fill="#E7983F" transform="translate(261,187)"/>
<path d="M0 0 C0.99 0.33 1.98 0.66 3 1 C-0.732388 4.57011026 -5.0949989 5.10913442 -10 6 C-9.67 5.34 -9.34 4.68 -9 4 C-6.67843403 3.59270772 -4.3431213 3.25561323 -2 3 C-2 2.34 -2 1.68 -2 1 C-1.34 0.67 -0.68 0.34 0 0 Z " fill="#FEF0CE" transform="translate(232,184)"/>
<path d="M0 0 C0 1.98 0 3.96 0 6 C-1.65 5.67 -3.3 5.34 -5 5 C-3.33333333 0 -3.33333333 0 0 0 Z " fill="#686868" transform="translate(116,322)"/>
<path d="M0 0 C0.66 0.33 1.32 0.66 2 1 C1.01 3.31 0.02 5.62 -1 8 C-1.66 7.34 -2.32 6.68 -3 6 C-3.99 6.495 -3.99 6.495 -5 7 C-3.70700306 4.11562221 -2.34058637 2.12780579 0 0 Z " fill="#E5E5E5" transform="translate(262,319)"/>
<path d="M0 0 C2.475 0.99 2.475 0.99 5 2 C4.67 3.32 4.34 4.64 4 6 C1 5 1 5 -0.1875 2.9375 C-0.5896875 1.9784375 -0.5896875 1.9784375 -1 1 C-0.67 0.67 -0.34 0.34 0 0 Z " fill="#5D5D5D" transform="translate(50,106)"/>
<path d="M0 0 C0.99 0.33 1.98 0.66 3 1 C3 3.31 3 5.62 3 8 C1.68 8.33 0.36 8.66 -1 9 C-0.67 6.03 -0.34 3.06 0 0 Z " fill="#FAFAFA" transform="translate(125,42)"/>
<path d="M0 0 C0.66 0 1.32 0 2 0 C2.66 1.65 3.32 3.3 4 5 C2.02 5 0.04 5 -2 5 C-1.34 3.35 -0.68 1.7 0 0 Z " fill="#676767" transform="translate(200,343)"/>
<path d="M0 0 C2 2 2 2 2.3125 4.9375 C2 8 2 8 -1 11 C-0.67 7.37 -0.34 3.74 0 0 Z " fill="#FEF9E8" transform="translate(267,171)"/>
<path d="M0 0 C0.99 0.66 1.98 1.32 3 2 C2.34 3.32 1.68 4.64 1 6 C0.01 5.67 -0.98 5.34 -2 5 C-1.125 1.125 -1.125 1.125 0 0 Z " fill="#5D5D5D" transform="translate(167,29)"/>
<path d="M0 0 C1.65 0 3.3 0 5 0 C4.67 1.32 4.34 2.64 4 4 C2.68 4 1.36 4 0 4 C0 2.68 0 1.36 0 0 Z " fill="#555555" transform="translate(153,25)"/>
<path d="M0 0 C1.32 0.66 2.64 1.32 4 2 C3.360625 2.103125 2.72125 2.20625 2.0625 2.3125 C1.381875 2.539375 0.70125 2.76625 0 3 C-0.33 3.99 -0.66 4.98 -1 6 C-1.33 5.34 -1.66 4.68 -2 4 C-2.66 4.66 -3.32 5.32 -4 6 C-3.6875 4.125 -3.6875 4.125 -3 2 C-2.01 1.34 -1.02 0.68 0 0 Z " fill="#D1D1D1" transform="translate(153,22)"/>
<path d="M0 0 C0.33 0 0.66 0 1 0 C1.33 2.31 1.66 4.62 2 7 C1.01 7 0.02 7 -1 7 C-1.33 7.99 -1.66 8.98 -2 10 C-2.17942163 6.05272412 -2.09350689 3.4019487 0 0 Z " fill="#787878" transform="translate(235,335)"/>
<path d="M0 0 C-0.33 0.99 -0.66 1.98 -1 3 C-2.65 2.67 -4.3 2.34 -6 2 C-6 1.34 -6 0.68 -6 0 C-3.50907189 -1.24546405 -2.58919267 -0.7767578 0 0 Z " fill="#686868" transform="translate(141,332)"/>
<path d="M0 0 C0.66 0 1.32 0 2 0 C2 0.66 2 1.32 2 2 C2.66 2 3.32 2 4 2 C3.34 3.65 2.68 5.3 2 7 C0.68 5.35 -0.64 3.7 -2 2 C-1.34 1.34 -0.68 0.68 0 0 Z " fill="#555555" transform="translate(256,328)"/>
<path d="M0 0 C0.66 0.33 1.32 0.66 2 1 C-1.32307692 4.93846154 -1.32307692 4.93846154 -4.75 5.25 C-5.4925 5.1675 -6.235 5.085 -7 5 C-4.702779 3.25728062 -2.40133271 1.60088848 0 0 Z " fill="#FBEBC8" transform="translate(255,262)"/>
<path d="M0 0 C2.475 0.99 2.475 0.99 5 2 C4.67 2.99 4.34 3.98 4 5 C3.01 5.33 2.02 5.66 1 6 C0.67 4.02 0.34 2.04 0 0 Z " fill="#5F5F5F" transform="translate(90,59)"/>
<path d="M0 0 C2.475 0.99 2.475 0.99 5 2 C4.01 2.99 3.02 3.98 2 5 C1.01 4.67 0.02 4.34 -1 4 C-0.67 2.68 -0.34 1.36 0 0 Z " fill="#606060" transform="translate(291,55)"/>
<path d="M0 0 C5.4611399 0.35233161 5.4611399 0.35233161 8 1 C9.5 3.0625 9.5 3.0625 10 5 C5 3 5 3 0 1 C0 0.67 0 0.34 0 0 Z " fill="#FEEFCB" transform="translate(246,204)"/>
<path d="M0 0 C2.475 0.495 2.475 0.495 5 1 C5 1.99 5 2.98 5 4 C3.35 4 1.7 4 0 4 C0 2.68 0 1.36 0 0 Z " fill="#565656" transform="translate(127,121)"/>
</svg>
